<svg width="118" height="41" viewBox="0 0 118 41" fill="none" xmlns="http://www.w3.org/2000/svg">
<path d="M46.384 31.24C45.776 31.24 45.192 31.192 44.632 31.096C44.072 31.016 43.664 30.912 43.408 30.784V28.624C43.76 28.768 44.184 28.888 44.68 28.984C45.176 29.08 45.68 29.128 46.192 29.128C47.248 29.128 48.04 28.912 48.568 28.48C49.112 28.032 49.384 27.328 49.384 26.368V13.72H51.928V26.464C51.928 28.064 51.456 29.264 50.512 30.064C49.568 30.848 48.192 31.24 46.384 31.24ZM55.2754 31V18.76H57.7714V31H55.2754ZM55.1554 16.36V13.552H57.9154V16.36H55.1554ZM61.9999 35.92L64.9519 29.176L65.4559 28.384L69.1759 18.76H71.7679L64.5679 35.92H61.9999ZM64.8319 31L59.5999 18.76H62.3119L66.7519 29.776L64.8319 31ZM77.6579 31.24C76.8419 31.24 76.1219 31.072 75.4979 30.736C74.8739 30.384 74.3859 29.904 74.0339 29.296C73.6979 28.688 73.5299 27.992 73.5299 27.208V18.76H76.0259V26.632C76.0259 27.48 76.2339 28.112 76.6499 28.528C77.0659 28.944 77.6579 29.152 78.4259 29.152C79.1139 29.152 79.7219 28.992 80.2499 28.672C80.7939 28.352 81.2179 27.912 81.5219 27.352C81.8419 26.776 82.0019 26.112 82.0019 25.36L82.3139 28.288C81.9139 29.184 81.2979 29.904 80.4659 30.448C79.6499 30.976 78.7139 31.24 77.6579 31.24ZM82.0979 31V28.12H82.0019V18.76H84.4739V31H82.0979ZM74.8499 15.784V14.008H83.3219V15.784H74.8499ZM87.9708 31V13.408H90.4668V31H87.9708ZM95.9148 31L89.8908 24.64L95.7228 18.76H98.8668L92.2428 25.192L92.3628 24.064L99.1068 31H95.9148ZM108.258 31C108.178 30.696 108.122 30.36 108.09 29.992C108.074 29.624 108.066 29.176 108.066 28.648H107.946V22.816C107.946 22.032 107.746 21.448 107.346 21.064C106.962 20.664 106.346 20.464 105.498 20.464C104.682 20.464 104.026 20.624 103.53 20.944C103.05 21.264 102.77 21.72 102.69 22.312H100.314C100.426 21.16 100.946 20.24 101.874 19.552C102.802 18.864 104.042 18.52 105.594 18.52C107.194 18.52 108.394 18.896 109.194 19.648C109.994 20.384 110.394 21.472 110.394 22.912V28.648C110.394 29.016 110.418 29.392 110.466 29.776C110.514 30.16 110.586 30.568 110.682 31H108.258ZM104.034 31.24C102.786 31.24 101.794 30.936 101.058 30.328C100.322 29.704 99.9539 28.864 99.9539 27.808C99.9539 26.72 100.338 25.864 101.106 25.24C101.89 24.6 103.01 24.168 104.466 23.944L108.498 23.296V25.048L104.85 25.624C104.034 25.752 103.418 25.968 103.002 26.272C102.602 26.576 102.402 27.016 102.402 27.592C102.402 28.152 102.586 28.576 102.954 28.864C103.338 29.136 103.89 29.272 104.61 29.272C105.57 29.272 106.362 29.04 106.986 28.576C107.626 28.112 107.946 27.528 107.946 26.824L108.258 28.6C107.97 29.448 107.458 30.104 106.722 30.568C105.986 31.016 105.09 31.24 104.034 31.24ZM113.611 31V18.76H116.107V31H113.611ZM113.491 16.36V13.552H116.251V16.36H113.491Z" fill="#343434"/>
<path d="M32.0582 18.1946C32.4305 19.787 32.6306 21.4748 32.6306 23.2224C32.6305 32.8843 26.5169 40.7168 18.9754 40.7168C11.4338 40.7168 5.32023 32.8843 5.32019 23.2224C5.32019 21.5251 5.509 19.8843 5.86089 18.3325C9.6922 19.1126 14.033 19.5527 18.6319 19.5527C23.4951 19.5527 28.0695 19.0605 32.0582 18.1946Z" fill="#F7EBD7"/>
<path d="M32.4606 23.2224C32.4606 21.5467 32.2747 19.9269 31.9292 18.3947C28.0923 19.2145 23.7256 19.6909 19.0879 19.7202L18.6319 19.7217C14.088 19.7217 9.79411 19.2926 5.99121 18.5308C5.66514 20.0227 5.49019 21.5962 5.49019 23.2224C5.49022 32.8335 11.5654 40.5479 18.9754 40.5479V40.7168C11.4338 40.7168 5.32023 32.8843 5.32019 23.2224C5.32019 21.5251 5.509 19.8843 5.86089 18.3325C9.6922 19.1126 14.033 19.5527 18.6319 19.5527C23.4951 19.5527 28.0695 19.0605 32.0582 18.1946C32.4305 19.787 32.6306 21.4748 32.6306 23.2224C32.6305 32.8843 26.5169 40.7168 18.9754 40.7168V40.5479C26.3275 40.5479 32.3655 32.9535 32.4594 23.4472L32.4606 23.2224Z" fill="black"/>
<path d="M15.4786 25.0774C13.3921 26.5172 11.1641 26.8495 10.2767 26.8321L10.2898 26.1594C11.054 26.1743 13.1397 25.8736 15.0963 24.5235L15.4786 25.0774Z" fill="#343434"/>
<path d="M21.3572 24.7095C23.5567 25.9698 25.8047 26.1146 26.6875 26.0232L26.6182 25.3539C25.858 25.4327 23.7544 25.3074 21.6918 24.1256L21.3572 24.7095Z" fill="#343434"/>
<path d="M19.2901 26.911C18.9596 28.1154 18.5972 29.8513 18.5673 31.1674C18.552 31.8388 18.626 32.3305 18.7785 32.5986C18.8476 32.7202 18.9268 32.7852 19.0206 32.813C19.1208 32.8426 19.272 32.8394 19.4954 32.748L19.6875 33.351C19.3968 33.47 19.1237 33.5059 18.8777 33.4331C18.6253 33.3584 18.4362 33.1795 18.3034 32.946C18.0518 32.5036 17.9865 31.8396 18.0022 31.1508C18.0341 29.7469 18.4143 27.945 18.7503 26.7207L19.2901 26.911Z" fill="#343434"/>
<path d="M24.1875 35.5851C22.8123 37.5308 21.099 38.0801 19.5243 37.9535C17.973 37.8288 16.5721 37.0522 15.75 36.3746L16.1671 35.8119C16.9137 36.4272 18.1909 37.13 19.5758 37.2414C20.9373 37.3508 22.4185 36.8927 23.6443 35.1582L24.1875 35.5851Z" fill="#343434"/>
<path d="M32.0625 18.2832C32.0625 19.8365 26.1443 21.0957 18.8438 21.0957C11.5432 21.0957 5.625 19.8365 5.625 18.2832C5.625 16.7299 11.5432 15.4707 18.8438 15.4707C26.1443 15.4707 32.0625 16.7299 32.0625 18.2832Z" fill="#F7EBD7"/>
<path d="M3.89614 7.3757C2.48164 6.47287 -2.20316 15.5931 2.85496 15.5931C-2.11769 16.7059 3.53914 28.43 5.97254 28.9707C4.46839 23.3339 11.7643 18.2012 10.8802 19.8063C9.99615 21.4113 17.8643 20.9097 19.2788 18.2012C20.6933 15.4928 25.4672 15.1918 23.2571 15.5931C21.0469 15.9943 24.5832 18.8031 27.6774 19.8063C30.1528 20.6088 32.1444 24.7206 32.2328 26.2921C33.7652 25.3559 35.2096 22.6552 33.5122 15.5931C38.4947 10.6518 32.2328 10.4812 32.2328 7.3757C32.2328 2.09806 29.7991 5.66199 28.2078 3.05383C26.9348 0.967299 24.3769 2.18444 23.2571 3.05383C20.8406 1.28162 15.4773 -1.09917 13.3556 3.5554C14.328 -0.156223 7.21688 0.144513 7.21688 5.612C3.89614 1.29092 5.04542 7.11114 3.89614 7.3757Z" fill="#343434"/>
<path d="M32.0808 7.22807C32.0808 5.90192 31.9248 5.20089 31.7137 4.82666C31.6136 4.64927 31.5029 4.54914 31.3886 4.48568C31.2693 4.41953 31.1259 4.38207 30.9438 4.36072C30.754 4.33846 30.5623 4.33672 30.3212 4.32436C30.0916 4.31259 29.8356 4.29124 29.5739 4.22462C29.0297 4.0861 28.5006 3.76175 28.0527 3.02809C27.7663 2.55914 27.4196 2.29178 27.0523 2.1524C26.68 2.0111 26.2626 1.9925 25.8284 2.06281C24.9518 2.20481 24.0719 2.69931 23.5318 3.11833L23.3309 3.27408L23.1259 3.1239C21.9277 2.24585 20.0117 1.22922 18.1572 1.00107C17.2347 0.8876 16.3469 0.971424 15.5712 1.34434C14.8009 1.71469 14.1105 2.38458 13.6016 3.50009L12.9698 3.27654C13.1871 2.448 12.9485 1.90825 12.5336 1.58885C12.0935 1.24997 11.3906 1.11027 10.6147 1.2482C9.08333 1.52043 7.41348 2.85237 7.41348 5.44294V6.43164L6.81008 5.647C6.39611 5.10875 6.06141 4.74129 5.79202 4.50451C5.51601 4.26192 5.34044 4.18523 5.24497 4.17058C5.18485 4.16136 5.14926 4.1722 5.0976 4.23265C5.02884 4.31312 4.95874 4.46024 4.89373 4.68712C4.83057 4.90757 4.78169 5.16768 4.73405 5.44834C4.68759 5.72207 4.64163 6.02003 4.58653 6.28833C4.53181 6.55475 4.46219 6.82355 4.35719 7.04071C4.25517 7.25168 4.08379 7.48712 3.78894 7.55496L3.65111 7.58657L3.532 7.51058C3.52397 7.50545 3.4512 7.46211 3.22857 7.60507C3.01835 7.74008 2.76299 7.99153 2.49046 8.34615C1.94923 9.05042 1.39861 10.0844 1.04675 11.149C0.691429 12.224 0.559047 13.2694 0.782916 14.0219C0.891999 14.3885 1.08241 14.6765 1.36743 14.8761C1.65467 15.0773 2.06814 15.2101 2.65852 15.2101L2.73228 15.8727C2.17693 15.9969 1.7874 16.2627 1.51775 16.6272C1.24343 16.998 1.07732 17.493 1.01505 18.0938C0.889828 19.3018 1.19309 20.8533 1.74199 22.4223C2.28857 23.9847 3.06608 25.5291 3.85498 26.7119C4.24963 27.3035 4.64199 27.7969 5.00364 28.1551C5.12423 28.2745 5.23784 28.3748 5.34321 28.4577C4.93359 25.7134 6.36566 23.173 7.81055 21.4816C8.60003 20.5574 9.41654 19.8583 9.99286 19.4893C10.1376 19.3966 10.2734 19.3207 10.3945 19.2671C10.5049 19.2182 10.642 19.17 10.7757 19.1727C10.8467 19.1742 10.9508 19.1907 11.0446 19.2649C11.1467 19.3458 11.189 19.4568 11.1979 19.5532C11.2123 19.7114 11.1417 19.8644 11.0827 19.9715C11.0668 20.0002 11.0598 20.0209 11.0568 20.0337C11.0539 20.0456 11.0545 20.052 11.0545 20.052C11.0545 20.052 11.0545 20.0537 11.0563 20.0571C11.0583 20.061 11.0638 20.07 11.0768 20.0831C11.1407 20.1476 11.3034 20.2335 11.6086 20.299C12.1996 20.4257 13.1142 20.4331 14.1252 20.3023C15.1313 20.1721 16.2016 19.909 17.1007 19.5168C18.0103 19.12 18.6918 18.6141 18.997 18.0302C19.777 16.538 21.4545 15.7408 22.5808 15.3668C23.1486 15.1782 23.6153 15.0844 23.8117 15.0669C23.8371 15.0647 23.8688 15.0627 23.9004 15.0638C23.9147 15.0643 23.9432 15.0658 23.9763 15.0733C23.9928 15.0771 24.0226 15.085 24.0565 15.102C24.0868 15.1172 24.1522 15.1553 24.1986 15.2353C24.2542 15.331 24.2542 15.4364 24.2237 15.5199C24.1985 15.5891 24.1573 15.6321 24.1382 15.6503C24.0992 15.6874 24.0596 15.7074 24.0473 15.7135C24.0143 15.73 23.9799 15.7417 23.9558 15.7494C23.8543 15.7816 23.6665 15.8245 23.3854 15.8755C23.1378 15.9204 23.0322 15.9895 22.9931 16.0316C22.9702 16.0562 22.9517 16.088 22.9691 16.1727C22.9897 16.2725 23.058 16.417 23.1995 16.6026C23.3378 16.7842 23.5309 16.9854 23.772 17.1979C24.7425 18.0538 26.3804 18.9965 27.9068 19.4909C29.278 19.9352 30.4632 21.2657 31.3031 22.6243C31.7285 23.3123 32.0769 24.0258 32.3253 24.6719C32.4755 25.0626 32.592 25.4368 32.666 25.7708C33.8709 24.6874 34.9203 22.002 33.3861 15.6236L33.342 15.4403L33.4761 15.3075C34.7224 14.0724 35.2084 13.188 35.3072 12.5284C35.4014 11.8991 35.1512 11.4072 34.7074 10.914C34.4829 10.6645 34.2181 10.4252 33.9341 10.1727C33.6548 9.92445 33.3556 9.6623 33.0866 9.38251C32.5463 8.82069 32.0808 8.14074 32.0808 7.22807ZM32.7537 7.22807C32.7537 7.88701 33.0811 8.40749 33.5723 8.91837C33.8191 9.17492 34.0954 9.41732 34.3819 9.67206C34.6638 9.92258 34.9555 10.1849 35.2084 10.466C35.7194 11.034 36.1086 11.7195 35.9727 12.6274C35.8459 13.4739 35.2701 14.446 34.0833 15.6496C35.741 22.6899 34.3332 25.5982 32.5931 26.6606L32.1129 26.9538L32.0813 26.3933C32.0618 26.0458 31.9325 25.5248 31.6969 24.912C31.4635 24.305 31.1338 23.6291 30.7303 22.9764C29.9123 21.6533 28.8349 20.4969 27.6988 20.1288C26.0909 19.608 24.3705 18.6214 23.3261 17.7004C23.0634 17.4688 22.8367 17.2353 22.6637 17.0083C22.4939 16.7854 22.3594 16.5475 22.31 16.3078C22.3018 16.2677 22.296 16.2273 22.2928 16.187C21.2925 16.59 20.1505 17.2747 19.5936 18.3403C19.1824 19.1271 18.3302 19.7128 17.3704 20.1315C16.4001 20.5547 15.2653 20.831 14.2118 20.9674C13.1631 21.1031 12.1634 21.1041 11.4671 20.9548C11.1287 20.8822 10.8044 20.7626 10.5982 20.5547C10.4879 20.4433 10.4051 20.2998 10.3857 20.1267C10.3823 20.0969 10.3811 20.0673 10.3816 20.0379C10.3733 20.0431 10.3649 20.0483 10.3564 20.0537C9.84652 20.3801 9.07852 21.0319 8.32278 21.9166C6.8019 23.697 5.42289 26.3081 6.14161 28.9995L6.28421 29.5332L5.7434 29.4132C5.33927 29.3234 4.92373 29.0214 4.52952 28.631C4.12569 28.231 3.70524 27.6987 3.29478 27.0833C2.47344 25.852 1.67099 24.2567 1.10655 22.6433C0.544431 21.0364 0.205728 19.3758 0.345764 18.0248C0.416113 17.3462 0.609301 16.7249 0.976112 16.2291C1.12631 16.026 1.30305 15.8477 1.50674 15.6968C1.31369 15.626 1.13833 15.5353 0.980711 15.4249C0.550167 15.1233 0.281933 14.6972 0.137783 14.2127C-0.144792 13.2629 0.0380195 12.0577 0.407698 10.9392C0.780851 9.8102 1.36498 8.70774 1.95638 7.93819C2.25015 7.55592 2.56067 7.23613 2.8642 7.0412C3.09919 6.8903 3.39792 6.77534 3.68856 6.85401C3.70674 6.83026 3.7282 6.79664 3.75099 6.74952C3.81828 6.61037 3.87486 6.40902 3.92726 6.15388C3.97928 5.9006 4.02146 5.62531 4.07052 5.33632C4.11839 5.05429 4.1725 4.76215 4.24679 4.50288C4.31925 4.25 4.42115 3.98985 4.58538 3.79767C4.7667 3.58548 5.02521 3.45828 5.34715 3.50762C5.63376 3.55156 5.92838 3.73009 6.23706 4.0014C6.4095 4.15297 6.59629 4.34321 6.80038 4.57494C7.13848 2.18538 8.86072 0.878676 10.4966 0.587869C11.3983 0.427573 12.3116 0.570396 12.945 1.05806C13.2883 1.32239 13.5318 1.67476 13.6476 2.10015C14.1153 1.47802 14.668 1.03366 15.2788 0.740014C16.2027 0.295819 17.2291 0.210886 18.2395 0.335166C20.1454 0.569614 22.063 1.55668 23.322 2.43867C23.9234 2.01286 24.8052 1.54894 25.7205 1.40068C26.237 1.31702 26.7801 1.3313 27.2917 1.52547C27.8084 1.72159 28.2691 2.09228 28.6275 2.67926C28.9854 3.2655 29.3691 3.48009 29.7405 3.57461C29.9365 3.62449 30.1391 3.64326 30.3557 3.65436C30.5609 3.66488 30.8035 3.66881 31.0225 3.69449C31.2493 3.72108 31.4895 3.77398 31.7158 3.89953C31.947 4.02782 32.1439 4.22093 32.3002 4.4978C32.6016 5.03209 32.7537 5.88333 32.7537 7.22807Z" fill="#343434"/>
</svg>
